<?xml version="1.0" encoding="utf-8"?>
<!-- Generator: Adobe Illustrator 25.0.1, SVG Export Plug-In . SVG Version: 6.00 Build 0)  -->
<svg version="1.1" id="Layer_1" xmlns="http://www.w3.org/2000/svg" xmlns:xlink="http://www.w3.org/1999/xlink" x="0px" y="0px"
	 viewBox="0 0 200 200" style="enable-background:new 0 0 200 200;" xml:space="preserve">
<style type="text/css">
	.st0{fill:#343C5C;}
	.st1{fill:none;stroke:#FFFFFF;stroke-width:24;stroke-miterlimit:10;}
	.st2{fill-rule:evenodd;clip-rule:evenodd;fill:#25AE5F;}
	.st3{fill-rule:evenodd;clip-rule:evenodd;fill:#F68C3F;}
</style>
<path class="st0" d="M155.8,193H44.2C23.6,193,7,176.4,7,155.8V44.2C7,23.6,23.6,7,44.2,7h111.7C176.4,7,193,23.6,193,44.2v111.7
	C193,176.4,176.4,193,155.8,193z"/>
<circle class="st1" cx="100" cy="100" r="58.7"/>
<path class="st2" d="M130,85.7c1.6,2.2,1.3,5.1,1,7c-1.9,11-15,45.8-19.6,62.3c-3.6,12.7-6.8,31.3-14.4,34.7c-3.1,1.4-6,1-6,1
	c-5.1-0.6-8.2-4.8-9-6c-4.4-6-3.1-13.7-1-25c0.7-3.6,2.4-11.3,7-23c2.5-6.3,6-14.2,11-23c8.9-16,16.2-27.5,19-30c0.6-0.6,2-1.8,4-2
	c1.6-0.1,2.9,0.5,4,1C127.2,83.3,128.9,84.1,130,85.7z"/>
<path class="st3" d="M120,13.7c1.6,2.2,1.3,5.1,1,7c-1.9,11-15,45.8-19.6,62.3c-3.6,12.7-6.8,31.3-14.4,34.7c-3.1,1.4-6,1-6,1
	c-5.1-0.6-8.2-4.8-9-6c-4.4-6-3.1-13.7-1-25c0.7-3.6,2.4-11.3,7-23c2.5-6.3,6-14.2,11-23c8.9-16,16.2-27.5,19-30c0.6-0.6,2-1.8,4-2
	c1.6-0.1,2.9,0.5,4,1C117.2,11.3,118.9,12.1,120,13.7z"/>
</svg>
