<?xml version="1.0" encoding="utf-8"?>
<!-- Generator: Adobe Illustrator 25.0.1, SVG Export Plug-In . SVG Version: 6.00 Build 0)  -->
<svg version="1.1" id="Layer_1" xmlns="http://www.w3.org/2000/svg" x="0px" y="0px"
     viewBox="0 0 100 100" style="enable-background:new 0 0 100 100;" xml:space="preserve">
<style type="text/css">
	.st0{fill-rule:evenodd;clip-rule:evenodd;fill:#777777;}
	.st1{fill:#FFFFFF;}
	.st2{fill:none;stroke:#FFFFFF;stroke-width:0.75;stroke-miterlimit:10;}
	.st3{fill:#FF5F57;}
</style>
<g id="Page-1">
	<g id="icon" transform="translate(85.333333, 64.000000)">
		<path id="Combined-Shape" class="st0" d="M-17.9-10.2v10c0,7.4-10.3,13.3-23,13.3c-12.4,0-22.5-5.7-23-12.8v-0.5v-10v0.5
			c0.4,7.1,10.6,12.8,23,12.8C-28.2,3.1-17.9-2.9-17.9-10.2L-17.9-10.2z M-63.9-26.4c0.4,7.1,10.6,12.8,23,12.8c12.7,0,23-6,23-13.3
			l0,0v10v0.2c-0.2,7.3-10.4,13.1-23,13.1c-12.4,0-22.5-5.7-23-12.8l0,0v-0.5v-10V-26.4z M-40.9-46.9c12.4,0,22.5,5.7,23,12.8v0.5
			v0.2c-0.2,7.3-10.4,13.1-23,13.1c-12.4,0-22.5-5.7-23-12.8l0,0v-0.5C-63.9-40.9-53.6-46.9-40.9-46.9z"/>
	</g>
</g>
<circle class="st1" cx="66" cy="69.3" r="19.8"/>
<g>
	<circle class="st2" cx="66" cy="69.3" r="16.3"/>
	<circle class="st3" cx="66" cy="69.3" r="16.4"/>
	<g>
		<path class="st1" d="M64.1,59.9c0.5-0.5,1.2-0.8,1.9-0.8c0.7,0,1.4,0.3,1.9,0.8s0.8,1.1,0.8,1.8c0,0.3-0.1,0.9-0.2,1.6
			c-0.2,0.7-0.3,1.4-0.5,2.1c-0.2,0.8-0.4,1.8-0.7,2.9s-0.5,2.6-0.8,4.4h-1.1c-0.3-1.7-0.5-3.2-0.8-4.4s-0.5-2.2-0.7-3
			s-0.4-1.6-0.5-2.2s-0.2-1.1-0.2-1.5C63.3,61,63.6,60.4,64.1,59.9z M64.1,75.2c0.5-0.5,1.2-0.8,1.9-0.8c0.7,0,1.3,0.3,1.9,0.8
			c0.5,0.5,0.8,1.1,0.8,1.8c0,0.7-0.3,1.3-0.8,1.8s-1.2,0.8-1.9,0.8c-0.7,0-1.3-0.3-1.9-0.8c-0.5-0.5-0.8-1.1-0.8-1.8
			C63.3,76.3,63.6,75.7,64.1,75.2z"/>
	</g>
</g>
</svg>
