<?xml version="1.0" encoding="utf-8"?>
<!-- Generator: Adobe Illustrator 25.0.1, SVG Export Plug-In . SVG Version: 6.00 Build 0)  -->
<svg version="1.1" id="Layer_1" xmlns="http://www.w3.org/2000/svg" x="0px" y="0px"
     viewBox="0 0 300 300" style="enable-background:new 0 0 300 300;" xml:space="preserve">
<style type="text/css">
	.st0{fill:none;stroke:#F68C3F;stroke-width:24;stroke-miterlimit:10;}
	.st1{fill-rule:evenodd;clip-rule:evenodd;fill:#25AE5F;}
	.st2{fill-rule:evenodd;clip-rule:evenodd;fill:#50C8E8;}
	.st3{fill:none;}
	.st4{fill:#E70F6F;}
	.st5{font-family:'Chalkduster';}
	.st6{font-size:60px;}
	.st7{fill:#F68C3F;}
	.st8{font-size:56px;}
</style>
<circle class="st0" cx="150" cy="105" r="58.7"/>
<path class="st1" d="M181,90.7c1.6,2.2,1.3,5.1,1,7c-1.9,11-15,45.8-19.6,62.3c-3.6,12.7-6.8,31.3-14.4,34.7c-3.1,1.4-6,1-6,1
	c-5.1-0.6-8.2-4.8-9-6c-4.4-6-3.1-13.7-1-25c0.7-3.6,2.4-11.3,7-23c2.5-6.3,6-14.2,11-23c8.9-16,16.2-27.5,19-30c0.6-0.6,2-1.8,4-2
	c1.6-0.1,2.9,0.5,4,1C178.2,88.3,179.9,89.1,181,90.7z"/>
<path class="st2" d="M170,18.7c1.6,2.2,1.3,5.1,1,7c-1.9,11-15,45.8-19.6,62.3c-3.6,12.7-6.8,31.3-14.4,34.7c-3.1,1.4-6,1-6,1
	c-5.1-0.6-8.2-4.8-9-6c-4.4-6-3.1-13.7-1-25c0.7-3.6,2.4-11.3,7-23c2.5-6.3,6-14.2,11-23c8.9-16,16.2-27.5,19-30c0.6-0.6,2-1.8,4-2
	c1.6-0.1,2.9,0.5,4,1C167.2,16.3,168.9,17.1,170,18.7z"/>
<rect x="8.7" y="207.7" class="st3" width="376.6" height="117.4"/>
<text transform="matrix(1 0 0 1 8.7445 259.3823)"><tspan x="0" y="0" class="st4 st5 st6">1</tspan><tspan x="36.3" y="0" class="st7 st5 st8">dataops</tspan></text>
</svg>
