<?xml version="1.0" encoding="utf-8"?>
<!-- Generator: Adobe Illustrator 25.0.1, SVG Export Plug-In . SVG Version: 6.00 Build 0)  -->
<svg version="1.1" id="Layer_1" xmlns="http://www.w3.org/2000/svg" x="0px" y="0px"
     viewBox="0 0 100 100" style="enable-background:new 0 0 100 100;" xml:space="preserve">
<style type="text/css">
	.st0{fill-rule:evenodd;clip-rule:evenodd;fill:#777777;}
	.st1{fill:#FFFFFF;}
	.st2{fill:#E281EC;}
</style>
<g id="Page-1">
	<g id="icon" transform="translate(85.333333, 64.000000)">
		<path id="Combined-Shape" class="st0" d="M-17.9-10.2v10c0,7.4-10.3,13.3-23,13.3c-12.4,0-22.5-5.7-23-12.8v-0.5v-10v0.5
			c0.4,7.1,10.6,12.8,23,12.8C-28.2,3.1-17.9-2.9-17.9-10.2L-17.9-10.2z M-63.9-26.4c0.4,7.1,10.6,12.8,23,12.8c12.7,0,23-6,23-13.3
			l0,0v10v0.2c-0.2,7.3-10.4,13.1-23,13.1c-12.4,0-22.5-5.7-23-12.8l0,0v-0.5v-10V-26.4z M-40.9-46.9c12.4,0,22.5,5.7,23,12.8v0.5
			v0.2c-0.2,7.3-10.4,13.1-23,13.1c-12.4,0-22.5-5.7-23-12.8l0,0v-0.5C-63.9-40.9-53.6-46.9-40.9-46.9z"/>
	</g>
</g>
<ellipse class="st1" cx="64.7" cy="69.5" rx="19.6" ry="19.7"/>
<g id="c163_chart">
	<path class="st2" d="M64.8,53.8v16h15.9c0,8.8-7.2,15.9-16,15.9s-15.9-7.2-15.9-16C48.9,61,56,53.8,64.8,53.8L64.8,53.8z"/>
	<path class="st2" d="M67.4,50.1c9.5,0,17.1,7.7,17.1,17.2H67.4V50.1z"/>
</g>
</svg>
