<?xml version="1.0" encoding="utf-8"?>
<!-- Generator: Adobe Illustrator 25.0.1, SVG Export Plug-In . SVG Version: 6.00 Build 0)  -->
<svg version="1.1" id="Layer_1" xmlns="http://www.w3.org/2000/svg" x="0px" y="0px"
     viewBox="0 0 100 100" style="enable-background:new 0 0 100 100;" xml:space="preserve">
<style type="text/css">
	.st0{fill-rule:evenodd;clip-rule:evenodd;fill:#777777;}
	.st1{fill:#FFFFFF;}
	.st2{fill:#3A85F7;}
</style>
<g id="Page-1">
	<g id="icon" transform="translate(85.333333, 64.000000)">
		<path id="Combined-Shape" class="st0" d="M-17.9-10.2v10c0,7.4-10.3,13.3-23,13.3c-12.4,0-22.5-5.7-23-12.8v-0.5v-10v0.5
			c0.4,7.1,10.6,12.8,23,12.8C-28.2,3.1-17.9-2.9-17.9-10.2L-17.9-10.2z M-63.9-26.4c0.4,7.1,10.6,12.8,23,12.8c12.7,0,23-6,23-13.3
			l0,0v10v0.2c-0.2,7.3-10.4,13.1-23,13.1c-12.4,0-22.5-5.7-23-12.8l0,0v-0.5v-10V-26.4z M-40.9-46.9c12.4,0,22.5,5.7,23,12.8v0.5
			v0.2c-0.2,7.3-10.4,13.1-23,13.1c-12.4,0-22.5-5.7-23-12.8l0,0v-0.5C-63.9-40.9-53.6-46.9-40.9-46.9z"/>
		<ellipse class="st1" cx="-18.1" cy="4.4" rx="20.2" ry="20.2"/>
		<path class="st2" d="M-18.2,20.6c-9,0-16.2-7.3-16.2-16.2s7.3-16.2,16.2-16.2S-1.9-4.6-1.9,4.4S-9.2,20.6-18.2,20.6z M-10.1,3.7
			c0-0.7-0.6-1.2-1.2-1.2h-5v-5c0-0.7-0.6-1.2-1.2-1.2h-1.2c-0.7,0-1.2,0.6-1.2,1.2v5h-5c-0.7,0-1.2,0.6-1.2,1.2v1.2
			c0,0.7,0.6,1.2,1.2,1.2h5v5c0,0.7,0.6,1.2,1.2,1.2h1.2c0.7,0,1.2-0.6,1.2-1.2v-5h5c0.7,0,1.2-0.6,1.2-1.2
			C-10.1,4.9-10.1,3.7-10.1,3.7z"/>
	</g>
</g>
</svg>
