<?xml version="1.0" encoding="utf-8"?>
<!-- Generator: Adobe Illustrator 25.0.1, SVG Export Plug-In . SVG Version: 6.00 Build 0)  -->
<svg version="1.1" id="Layer_1" xmlns="http://www.w3.org/2000/svg" x="0px" y="0px"
     viewBox="0 0 100 100" style="enable-background:new 0 0 100 100;" xml:space="preserve">
<style type="text/css">
	.st0{fill-rule:evenodd;clip-rule:evenodd;fill:#777777;}
	.st1{fill:#FFFFFF;}
	.st2{fill-rule:evenodd;clip-rule:evenodd;fill:#27AE60;}
	.st3{fill-rule:evenodd;clip-rule:evenodd;fill:#FFFFFF;}
</style>
<g id="Page-1">
	<g id="icon" transform="translate(85.333333, 64.000000)">
		<path id="Combined-Shape" class="st0" d="M-17.9-10.2v10c0,7.4-10.3,13.3-23,13.3c-12.4,0-22.5-5.7-23-12.8v-0.5v-10v0.5
			c0.4,7.1,10.6,12.8,23,12.8C-28.2,3.1-17.9-2.9-17.9-10.2L-17.9-10.2z M-63.9-26.4c0.4,7.1,10.6,12.8,23,12.8c12.7,0,23-6,23-13.3
			l0,0v10v0.2c-0.2,7.3-10.4,13.1-23,13.1c-12.4,0-22.5-5.7-23-12.8l0,0v-0.5v-10V-26.4z M-40.9-46.9c12.4,0,22.5,5.7,23,12.8v0.5
			v0.2c-0.2,7.3-10.4,13.1-23,13.1c-12.4,0-22.5-5.7-23-12.8l0,0v-0.5C-63.9-40.9-53.6-46.9-40.9-46.9z"/>
		<ellipse class="st1" cx="-19.7" cy="5" rx="20.6" ry="20.2"/>
		<g>
			<circle class="st2" cx="-19.9" cy="5" r="16.3"/>
			<path class="st3" d="M-29.2,9.6c-0.9,0-1.5,0.7-1.5,1.5c0,0.9,0.7,1.5,1.5,1.5s1.5-0.7,1.5-1.5C-27.6,10.3-28.3,9.6-29.2,9.6z"/>
			<path class="st3" d="M-29.2,3.4c-0.9,0-1.5,0.7-1.5,1.5s0.7,1.5,1.5,1.5s1.5-0.7,1.5-1.5S-28.3,3.4-29.2,3.4z"/>
			<path class="st3" d="M-29.2-2.7c-0.9,0-1.5,0.7-1.5,1.5s0.7,1.5,1.5,1.5s1.5-0.7,1.5-1.5S-28.3-2.7-29.2-2.7z"/>
			<path class="st3" d="M-9.1-2c0-0.4-0.3-0.8-0.8-0.8h-13.9c-0.4,0-0.8,0.3-0.8,0.8v1.5c0,0.4,0.3,0.8,0.8,0.8h13.9
				c0.4,0,0.8-0.3,0.8-0.8V-2z"/>
			<path class="st3" d="M-9.1,4.2c0-0.4-0.3-0.8-0.8-0.8h-13.9c-0.4,0-0.8,0.3-0.8,0.8v1.5c0,0.4,0.3,0.8,0.8,0.8h13.9
				c0.4,0,0.8-0.3,0.8-0.8V4.2z"/>
			<path class="st3" d="M-9.1,10.4c0-0.4-0.3-0.8-0.8-0.8h-13.9c-0.4,0-0.8,0.3-0.8,0.8v1.5c0,0.4,0.3,0.8,0.8,0.8h13.9
				c0.4,0,0.8-0.3,0.8-0.8V10.4z"/>
		</g>
	</g>
</g>
</svg>
