<?xml version="1.0" encoding="utf-8"?>
<!-- Generator: Adobe Illustrator 25.0.1, SVG Export Plug-In . SVG Version: 6.00 Build 0)  -->
<svg version="1.1" id="Layer_1" xmlns="http://www.w3.org/2000/svg" xmlns:xlink="http://www.w3.org/1999/xlink" x="0px" y="0px"
	 viewBox="0 0 200 200" style="enable-background:new 0 0 200 200;" xml:space="preserve">
<style type="text/css">
	.st0{fill:none;stroke:#F68C3F;stroke-width:24;stroke-miterlimit:10;}
	.st1{fill-rule:evenodd;clip-rule:evenodd;fill:#25AE5F;}
	.st2{fill-rule:evenodd;clip-rule:evenodd;fill:#50C8E8;}
</style>
<circle class="st0" cx="100" cy="100" r="58.7"/>
<path class="st1" d="M131,85.7c1.6,2.2,1.3,5.1,1,7c-1.9,11-15,45.8-19.6,62.3c-3.6,12.7-6.8,31.3-14.4,34.7c-3.1,1.4-6,1-6,1
	c-5.1-0.6-8.2-4.8-9-6c-4.4-6-3.1-13.7-1-25c0.7-3.6,2.4-11.3,7-23c2.5-6.3,6-14.2,11-23c8.9-16,16.2-27.5,19-30c0.6-0.6,2-1.8,4-2
	c1.6-0.1,2.9,0.5,4,1C128.2,83.3,129.9,84.1,131,85.7z"/>
<path class="st2" d="M120,13.7c1.6,2.2,1.3,5.1,1,7c-1.9,11-15,45.8-19.6,62.3c-3.6,12.7-6.8,31.3-14.4,34.7c-3.1,1.4-6,1-6,1
	c-5.1-0.6-8.2-4.8-9-6c-4.4-6-3.1-13.7-1-25c0.7-3.6,2.4-11.3,7-23c2.5-6.3,6-14.2,11-23c8.9-16,16.2-27.5,19-30c0.6-0.6,2-1.8,4-2
	c1.6-0.1,2.9,0.5,4,1C117.2,11.3,118.9,12.1,120,13.7z"/>
</svg>
