<?xml version="1.0" encoding="utf-8"?>
<!-- Generator: Adobe Illustrator 25.0.1, SVG Export Plug-In . SVG Version: 6.00 Build 0)  -->
<svg version="1.1" id="Layer_1" xmlns="http://www.w3.org/2000/svg" x="0px" y="0px"
     viewBox="0 0 100 100" style="enable-background:new 0 0 100 100;" xml:space="preserve">
<style type="text/css">
	.st0{fill-rule:evenodd;clip-rule:evenodd;fill:#777777;}
	.st1{fill:#FFFFFF;}
	.st2{fill:#FFCB00;}
</style>
<g id="Page-1">
	<g id="icon" transform="translate(85.333333, 64.000000)">
		<path id="Combined-Shape" class="st0" d="M-17.9-10.2v10c0,7.4-10.3,13.3-23,13.3c-12.4,0-22.5-5.7-23-12.8v-0.5v-10v0.5
			c0.4,7.1,10.6,12.8,23,12.8C-28.2,3.1-17.9-2.9-17.9-10.2L-17.9-10.2z M-63.9-26.4c0.4,7.1,10.6,12.8,23,12.8c12.7,0,23-6,23-13.3
			l0,0v10v0.2c-0.2,7.3-10.4,13.1-23,13.1c-12.4,0-22.5-5.7-23-12.8l0,0v-0.5v-10V-26.4z M-40.9-46.9c12.4,0,22.5,5.7,23,12.8v0.5
			v0.2c-0.2,7.3-10.4,13.1-23,13.1c-12.4,0-22.5-5.7-23-12.8l0,0v-0.5C-63.9-40.9-53.6-46.9-40.9-46.9z"/>
	</g>
</g>
<ellipse class="st1" cx="64.7" cy="69.5" rx="19.6" ry="19.7"/>
<path class="st2" d="M81,69.5c0,9-7.3,16.3-16.3,16.3s-16.3-7.3-16.3-16.3c0-9,7.3-16.3,16.3-16.3C73.7,53.2,81,60.5,81,69.5
	C81,69.5,81,69.5,81,69.5z M59.4,68c2.1,0,3.7-1.7,3.7-3.7c0-2.1-1.7-3.7-3.7-3.7c-2.1,0-3.7,1.7-3.7,3.7C55.7,66.3,57.3,68,59.4,68
	L59.4,68z M59.4,65.7c-0.8,0-1.4-0.6-1.4-1.4c0-0.8,0.6-1.4,1.4-1.4s1.4,0.6,1.4,1.4C60.9,65.1,60.2,65.7,59.4,65.7z M71.2,62.8
	c0.5-0.7,0.4-1.8-0.4-2.3c-0.7-0.5-1.8-0.4-2.3,0.4c0,0,0,0.1-0.1,0.1L58.3,76.2c-0.5,0.8-0.3,1.8,0.5,2.3c0.7,0.5,1.7,0.3,2.2-0.4
	L71.2,62.8z M73.8,74.8c0-2.1-1.7-3.7-3.7-3.7s-3.7,1.7-3.7,3.7s1.7,3.7,3.7,3.7C72.2,78.6,73.8,76.9,73.8,74.8z M71.5,74.8
	c0,0.8-0.6,1.4-1.4,1.4c-0.8,0-1.4-0.6-1.4-1.4c0-0.8,0.6-1.4,1.4-1.4c0,0,0,0,0,0C70.9,73.4,71.5,74,71.5,74.8z"/>
</svg>
